<svg width="62" height="62" viewBox="0 0 62 62" fill="none" xmlns="http://www.w3.org/2000/svg">
<path d="M49.9965 54H12.0035C9.79156 54 8 52.2088 8 49.9974V12.0026C8 9.79117 9.79156 8 12.0035 8H49.9965C52.2084 8 54 9.79117 54 12.0026V49.9874C54 52.2088 52.2084 54 49.9965 54Z" fill="url(#paint0_linear_4_27)"/>
<path d="M47.8646 33.1063C47.5444 33.1664 47.2241 33.2264 46.9038 33.2765C45.3625 33.5266 43.8311 33.8568 42.3298 34.2771C39.5574 35.0476 36.8651 36.0783 34.1527 37.0189C31.8707 37.8194 30.1593 38.3898 28.2376 38.9502C27.4169 39.1903 26.5861 39.3904 25.7454 39.5506C24.084 39.8708 22.3224 39.9408 20.721 39.3004C19.8503 38.9502 19.0496 38.3398 18.5291 37.5492C17.8385 36.5086 17.5483 35.2377 17.5082 33.9769C17.5082 33.9169 17.5183 33.8568 17.5383 33.8068C17.7084 33.3265 17.8686 32.8362 18.0487 32.3559C18.0487 32.3459 18.0487 32.3358 18.0387 32.3358L17.6183 32.3258C17.5983 32.3258 17.5883 32.3158 17.5883 32.2858C17.6784 31.5353 17.8686 30.8249 18.1388 30.1444C18.5792 29.0637 19.2998 28.1631 20.2606 27.5027C21.872 26.392 23.8938 25.8016 25.8355 25.7015C26.9264 25.6515 28.0975 25.8016 29.1384 26.0417C30.3494 26.3219 31.5705 26.7022 32.7915 27.1825C34.2828 27.7629 35.7041 28.4733 37.1553 29.1238C38.8468 29.8842 40.5583 30.5847 42.2998 31.2451C42.3098 31.2551 42.3298 31.2451 42.3398 31.2451L43.7411 30.5947C43.7511 30.5847 43.7511 30.5847 43.7411 30.5747C41.5792 29.7742 39.4473 28.9236 37.3455 27.963C36.6149 27.6228 35.8742 27.2926 35.1436 26.9523C32.8516 25.9117 30.4795 25.0411 27.9673 24.6809C26.9264 24.5308 25.8555 24.5207 24.8346 24.6408C23.2232 24.831 21.5418 25.3813 20.1405 26.2219C19.2197 26.7622 18.389 27.5127 17.7885 28.4033C17.168 29.3239 16.7776 30.3746 16.5674 31.4653C16.5374 31.6254 16.4974 31.8956 16.4473 32.2758C16.4473 32.2858 16.4373 32.2958 16.4273 32.2958L15.8768 32.2858C15.8668 32.2858 15.8668 32.2858 15.8668 32.2958C16.027 32.7861 16.1771 33.2765 16.3372 33.7668C16.3973 33.9469 16.3973 34.117 16.4073 34.3071C16.5074 36.0483 17.0779 37.8394 18.369 39.1003C19.2698 39.9808 20.5209 40.5412 21.802 40.7713C22.973 40.9715 24.134 40.9515 25.3551 40.7613C26.3159 40.6112 27.3568 40.3811 28.4778 40.0509C31.8407 39.0602 35.2537 37.8194 38.6166 36.6387C41.359 35.678 44.1214 34.8575 46.9939 34.3972C47.5043 34.3171 47.9147 34.2371 48.3751 34.107C48.6854 34.0269 48.9556 33.9269 49.1858 33.7268C49.476 33.4766 49.5561 33.1164 49.386 32.7661C49.1758 32.3258 48.6053 32.1457 48.1249 31.9856C47.2041 31.6754 46.2733 31.4152 45.3425 31.1151C45.3224 31.105 45.3124 31.1151 45.2924 31.1151L43.8311 31.7855C43.8211 31.7855 43.8211 31.7955 43.8311 31.7955C44.9221 32.1757 46.013 32.526 47.114 32.8462C47.3742 32.9362 47.6144 33.0163 47.8646 33.1063C47.8646 33.0963 47.8646 33.0963 47.8646 33.1063Z" fill="white"/>
<path d="M47.8646 33.1063C47.5444 33.1664 47.2241 33.2264 46.9038 33.2765C45.3625 33.5266 43.8311 33.8568 42.3298 34.2771C39.5574 35.0476 36.8651 36.0783 34.1527 37.0189C31.8707 37.8194 30.1593 38.3898 28.2376 38.9502C27.4169 39.1903 26.5861 39.3904 25.7454 39.5506C24.084 39.8708 22.3224 39.9408 20.721 39.3004C19.8503 38.9502 19.0496 38.3398 18.5291 37.5492C17.8385 36.5086 17.5483 35.2377 17.5082 33.9769C17.5082 33.9169 17.5183 33.8568 17.5383 33.8068C17.7084 33.3265 17.8686 32.8362 18.0487 32.3559C18.0487 32.3459 18.0487 32.3358 18.0387 32.3358L17.6183 32.3258C17.5983 32.3258 17.5883 32.3158 17.5883 32.2858C17.6784 31.5353 17.8686 30.8249 18.1388 30.1444C18.5792 29.0637 19.2998 28.1631 20.2606 27.5027C21.872 26.392 23.8938 25.8016 25.8355 25.7015C26.9264 25.6515 28.0975 25.8016 29.1384 26.0417C30.3494 26.3219 31.5705 26.7022 32.7915 27.1825C34.2828 27.7629 35.7041 28.4733 37.1553 29.1238C38.8468 29.8842 40.5583 30.5847 42.2998 31.2451C42.3098 31.2551 42.3298 31.2451 42.3398 31.2451L43.7411 30.5947C43.7511 30.5847 43.7511 30.5847 43.7411 30.5747C41.5792 29.7742 39.4473 28.9236 37.3455 27.963C36.6149 27.6228 35.8742 27.2926 35.1436 26.9523C32.8516 25.9117 30.4795 25.0411 27.9673 24.6809C26.9264 24.5308 25.8555 24.5207 24.8346 24.6408C23.2232 24.831 21.5418 25.3813 20.1405 26.2219C19.2197 26.7622 18.389 27.5127 17.7885 28.4033C17.168 29.3239 16.7776 30.3746 16.5674 31.4653C16.5374 31.6254 16.4974 31.8956 16.4473 32.2758C16.4473 32.2858 16.4373 32.2958 16.4273 32.2958L15.8768 32.2858C15.8668 32.2858 15.8668 32.2858 15.8668 32.2958C16.027 32.7861 16.1771 33.2765 16.3372 33.7668C16.3973 33.9469 16.3973 34.117 16.4073 34.3071C16.5074 36.0483 17.0779 37.8394 18.369 39.1003C19.2698 39.9808 20.5209 40.5412 21.802 40.7713C22.973 40.9715 24.134 40.9515 25.3551 40.7613C26.3159 40.6112 27.3568 40.3811 28.4778 40.0509C31.8407 39.0602 35.2537 37.8194 38.6166 36.6387C41.359 35.678 44.1214 34.8575 46.9939 34.3972C47.5043 34.3171 47.9147 34.2371 48.3751 34.107C48.6854 34.0269 48.9556 33.9269 49.1858 33.7268C49.476 33.4766 49.5561 33.1164 49.386 32.7661C49.1758 32.3258 48.6053 32.1457 48.1249 31.9856C47.2041 31.6754 46.2733 31.4152 45.3425 31.1151C45.3224 31.105 45.3124 31.1151 45.2924 31.1151L43.8311 31.7855C43.8211 31.7855 43.8211 31.7955 43.8311 31.7955C44.9221 32.1757 46.013 32.526 47.114 32.8462C47.3742 32.9362 47.6144 33.0163 47.8646 33.1063ZM47.8646 33.1063C47.8646 33.0963 47.8646 33.0963 47.8646 33.1063Z" stroke="#30286B" stroke-width="0.0605"/>
<path d="M47.5644 37.8194C47.2341 37.9395 46.8137 37.9595 46.4735 37.9595C45.5126 37.9395 44.5618 37.8294 43.631 37.6193C43.5809 37.6093 43.5309 37.6093 43.4809 37.6193C43.1105 37.6893 42.7302 37.7594 42.3699 37.8394C42.3599 37.8394 42.3599 37.8494 42.3699 37.8494C43.641 38.2597 44.9822 38.4899 46.3834 38.5199C46.8738 38.5299 48.4752 38.5299 48.1049 37.5893C47.7846 36.7887 46.4935 36.6286 45.7628 36.6086C44.1715 36.5486 42.6701 36.8588 41.1088 37.2791C40.5583 37.4292 40.0078 37.5693 39.4573 37.7294C36.9952 38.4899 35.0035 39.1703 32.131 40.1209C31.1802 40.4311 30.4095 40.6813 29.7989 40.8614C28.0374 41.3717 26.2158 41.712 24.3142 41.8921C23.1932 42.0021 22.0222 41.9821 20.7911 41.832C19.9704 41.732 19.1897 41.5819 18.4691 41.2717C18.1188 41.1216 17.7485 40.9314 17.3681 40.7113C16.2872 40.1009 15.4565 39.2604 14.856 38.1997C14.3755 37.3391 13.9952 36.4185 13.8251 35.4479C13.725 34.8775 13.6549 34.3071 13.6049 33.7267C13.6049 33.6767 13.6049 33.6167 13.6249 33.5666C13.755 33.1664 13.8751 32.7761 14.0052 32.3759C14.0052 32.3659 14.0052 32.3659 13.9952 32.3659L13.6549 32.3759C13.6449 32.3759 13.6349 32.3659 13.6349 32.3558C13.765 29.7842 14.8259 27.2125 16.3272 25.1311C17.0779 24.1005 17.9486 23.2599 18.9595 22.4694C19.5 22.0391 20.0204 21.6689 20.661 21.3787C23.9038 19.8777 27.6471 19.7476 31.1101 20.5181C31.9708 20.7083 32.7215 20.8984 33.352 21.0685C33.9325 21.2286 34.453 21.4087 34.8934 21.5988C35.7441 21.9791 36.6549 22.4294 37.6158 22.9597C39.1771 23.8203 40.9587 24.7009 42.2398 25.3913C43.8712 26.2619 45.5126 27.1324 47.154 27.983C47.4943 28.1631 47.9347 28.3933 48.225 28.6835C48.235 28.6935 48.235 28.7035 48.225 28.7135C47.9848 28.9536 47.6545 29.1237 47.3442 29.2638C43.5909 30.9349 39.8977 32.7261 36.1244 34.3271C33.6923 35.3578 31.1401 36.2984 28.698 37.1089C27.4869 37.5092 26.2358 37.7694 24.9347 37.8795C23.7237 37.9895 22.1223 37.9995 21.1614 37.0989C20.681 36.6487 20.4508 36.0282 20.3407 35.3778C20.2807 34.9876 20.2306 34.5973 20.2607 34.2171C20.2607 34.167 20.2807 34.127 20.3007 34.077C20.5109 33.6967 20.7311 33.3165 20.9513 32.9362C20.9613 32.9262 20.9513 32.9162 20.9412 32.9162L20.601 32.8462C20.5909 32.8462 20.5809 32.8362 20.5909 32.8262C21.0614 31.4453 22.0722 30.0644 23.5735 29.7241C24.5344 29.514 25.5553 29.564 26.4961 29.8542C28.0074 30.3245 29.2885 31.3852 30.6197 32.1957C31.9909 33.0263 33.4021 33.7868 34.8333 34.5173C34.8433 34.5273 34.8634 34.5273 34.8834 34.5173L35.5239 34.2571C35.5339 34.2571 35.5339 34.2471 35.5239 34.2371C34.7232 33.8268 33.9325 33.4065 33.1419 32.9863C31.9208 32.3358 30.7298 31.6154 29.5788 30.8449C28.5579 30.1544 27.4469 29.474 26.2258 29.1938C25.4352 29.0137 24.6345 28.9836 23.8238 29.1037C22.953 29.2338 22.2023 29.594 21.5618 30.2145C20.8412 30.9149 20.3607 31.7655 20.0405 32.7061C20.0405 32.7161 20.0305 32.7261 20.0104 32.7161L19.6001 32.636C19.5901 32.636 19.5801 32.636 19.5801 32.646C19.6201 32.9963 19.6601 33.3365 19.7102 33.6867C19.7202 33.7668 19.7202 33.8468 19.7102 33.9369C19.6301 34.7474 19.7302 35.5379 20.0004 36.2984C20.5409 37.8494 22.0622 38.3998 23.5735 38.4398C25.0048 38.4798 26.4761 38.2597 27.8573 37.8895C28.3077 37.7694 28.8381 37.5993 29.4386 37.3991C31.1301 36.8188 32.7315 36.2684 34.2428 35.658C37.1453 34.4772 39.6275 33.3765 42.55 32.0156C44.2315 31.2251 45.933 30.4646 47.6345 29.6941C48.295 29.3939 49.396 28.7535 48.3251 28.003C48.0048 27.7729 47.6445 27.5627 47.2441 27.3526C45.6327 26.512 44.0213 25.6615 42.4199 24.8009C40.9687 24.0204 39.4674 23.31 38.0261 22.5094C37.1754 22.0391 36.3146 21.5988 35.4339 21.1886C34.0627 20.5482 32.5513 20.2279 31.0901 19.9077C27.527 19.1272 23.6836 19.2873 20.3407 20.8483C19.8803 21.0585 19.4399 21.3287 19.0196 21.6389C17.8686 22.4994 16.8077 23.45 15.9569 24.5908C15.2063 25.6014 14.5257 26.7422 14.0553 27.9029C13.4948 29.2939 13.1044 30.7848 13.0244 32.2958C13.0244 32.3058 13.0144 32.3158 13.0043 32.3158H12.6941C12.6841 32.3158 12.6741 32.3258 12.6741 32.3358C12.6741 32.4659 12.654 32.596 12.7041 32.7161C12.7942 32.9662 12.8842 33.2264 12.9643 33.4866C12.9843 33.5566 13.0043 33.6367 13.0043 33.7167C13.0444 34.3672 13.1244 34.9976 13.2546 35.638C13.4447 36.5686 13.785 37.4292 14.2354 38.2697C14.6458 39.0202 15.1662 39.6906 15.8068 40.271C16.4574 40.8614 17.2881 41.3217 18.0988 41.6819C18.7493 41.9721 19.4199 42.1522 20.1406 42.2623C21.5718 42.4825 22.993 42.5225 24.4043 42.3824C26.5561 42.1723 28.678 41.742 30.7298 41.0915C34.3629 39.9408 37.936 38.5999 41.6292 37.6493C42.5701 37.4091 43.4909 37.239 44.3716 37.149C45.2724 37.0589 46.2232 37.0689 47.094 37.3691C47.2842 37.4392 47.4343 37.5592 47.5244 37.7394C47.5844 37.7994 47.5744 37.8094 47.5644 37.8194Z" fill="white" stroke="#30286B" stroke-width="0.0605"/>
<path d="M41.2989 36.9189L40.0378 36.4485C40.0278 36.4485 40.0178 36.4485 40.0078 36.4485L39.2671 36.7087C39.2471 36.7187 39.2471 36.7287 39.2671 36.7287L40.3281 37.159C40.3381 37.159 40.3481 37.169 40.3681 37.159C40.6784 37.089 40.9887 37.0089 41.2989 36.9189Z" fill="white" stroke="#30286B" stroke-width="0.0605"/>
<path d="M37.8059 35.4279L37.8159 35.4179C37.8159 35.4179 37.8159 35.4179 37.8159 35.4079L36.8951 34.9376H36.8851L36.2346 35.2077L36.2245 35.2177L37.0853 35.658H37.0953L37.8059 35.4279Z" fill="white" stroke="#30286B" stroke-width="0.0605"/>
<path d="M47.8646 33.1063C47.8646 33.0963 47.8646 33.0963 47.8646 33.1063C47.6244 33.0163 47.3742 32.9362 47.124 32.8662C46.023 32.536 44.9221 32.1858 43.8412 31.8155C43.8311 31.8155 43.8311 31.8055 43.8412 31.8055L45.3024 31.1351C45.3124 31.1251 45.3324 31.1251 45.3525 31.1351C46.2733 31.4353 47.2141 31.7054 48.1349 32.0056C48.6153 32.1657 49.1858 32.3459 49.396 32.7861C49.5561 33.1264 49.476 33.4966 49.1958 33.7468C48.9656 33.9469 48.6954 34.047 48.3851 34.127C47.9247 34.2471 47.5143 34.3372 47.0039 34.4172C44.1314 34.8775 41.359 35.688 38.6266 36.6587C35.2637 37.8394 31.8607 39.0803 28.4878 40.0709C27.3668 40.4011 26.3259 40.6413 25.3651 40.7814C24.144 40.9715 22.973 40.9915 21.812 40.7914C20.5309 40.5712 19.2798 40.0008 18.379 39.1203C17.0879 37.8695 16.5174 36.0783 16.4173 34.3271C16.4073 34.137 16.4073 33.9669 16.3472 33.7868C16.1971 33.2965 16.037 32.8062 15.8768 32.3158C15.8768 32.3058 15.8768 32.3058 15.8868 32.3058L16.4373 32.3158C16.4473 32.3158 16.4573 32.3058 16.4573 32.2958C16.5074 31.9056 16.5474 31.6354 16.5774 31.4853C16.7876 30.3946 17.178 29.3439 17.7985 28.4233C18.389 27.5427 19.2297 26.7922 20.1505 26.2419C21.5618 25.4013 23.2432 24.861 24.8446 24.6608C25.8655 24.5408 26.9364 24.5508 27.9773 24.7009C30.4895 25.0611 32.8716 25.9317 35.1536 26.9724C35.8842 27.3126 36.6249 27.6428 37.3555 27.983C39.4573 28.9436 41.5892 29.7942 43.7511 30.5947C43.7611 30.6047 43.7611 30.6047 43.7511 30.6147L42.3498 31.2652C42.3398 31.2752 42.3198 31.2752 42.3098 31.2652C40.5683 30.6147 38.8468 29.9043 37.1653 29.1438C35.7141 28.4933 34.2828 27.7829 32.8015 27.2025C31.5805 26.7222 30.3594 26.3419 29.1484 26.0618C28.1075 25.8216 26.9364 25.6715 25.8455 25.7215C23.9038 25.8116 21.8821 26.412 20.2707 27.5227C19.3098 28.1831 18.5892 29.0837 18.1488 30.1644C17.8686 30.8449 17.6884 31.5553 17.5983 32.3058C17.5983 32.3258 17.6083 32.3359 17.6284 32.3459L18.0487 32.3559C18.0587 32.3559 18.0687 32.3659 18.0587 32.3759C17.8886 32.8562 17.7184 33.3465 17.5483 33.8268C17.5283 33.8869 17.5183 33.9469 17.5183 33.9969C17.5583 35.2578 17.8485 36.5286 18.5391 37.5693C19.0596 38.3598 19.8603 38.9702 20.7311 39.3204C22.3324 39.9608 24.094 39.8908 25.7554 39.5706C26.5961 39.4105 27.4269 39.2103 28.2476 38.9702C30.1693 38.4098 31.8707 37.8394 34.1627 37.0389C36.8851 36.0883 39.5674 35.0676 42.3398 34.2971C43.8512 33.8769 45.3725 33.5466 46.9138 33.2965C47.2241 33.2264 47.5444 33.1664 47.8646 33.1063Z" fill="white"/>
<path d="M47.5743 37.7894C47.4843 37.6092 47.3441 37.4892 47.144 37.4191C46.2732 37.1089 45.3224 37.1089 44.4216 37.199C43.5308 37.289 42.62 37.4591 41.6792 37.6993C37.986 38.6499 34.4129 39.9908 30.7797 41.1415C28.718 41.792 26.5961 42.2223 24.4542 42.4324C23.043 42.5725 21.6218 42.5325 20.1905 42.3123C19.4799 42.2022 18.7993 42.0221 18.1488 41.7319C17.3381 41.3717 16.5073 40.9114 15.8568 40.321C15.2162 39.7406 14.6958 39.0702 14.2854 38.3197C13.835 37.4792 13.4947 36.6286 13.3045 35.688C13.1744 35.0576 13.0944 34.4172 13.0543 33.7667C13.0543 33.6867 13.0343 33.6166 13.0143 33.5366C12.9342 33.2764 12.8441 33.0263 12.7541 32.7661C12.714 32.636 12.724 32.5059 12.724 32.3858C12.724 32.3758 12.734 32.3658 12.7441 32.3658H13.0543C13.0643 32.3658 13.0743 32.3558 13.0743 32.3458C13.1644 30.8348 13.5448 29.3439 14.1052 27.9529C14.5757 26.7922 15.2562 25.6514 16.0069 24.6408C16.8576 23.49 17.9186 22.5494 19.0696 21.6889C19.4899 21.3686 19.9303 21.1085 20.3907 20.8983C23.7336 19.3273 27.577 19.1772 31.1401 19.9577C32.6113 20.2779 34.1226 20.6082 35.4838 21.2386C36.3646 21.6488 37.2254 22.0891 38.0761 22.5594C39.5173 23.36 41.0186 24.0704 42.4699 24.8509C44.0713 25.7115 45.6827 26.562 47.2941 27.4026C47.6945 27.6127 48.0548 27.8229 48.375 28.053C49.436 28.8035 48.345 29.4439 47.6844 29.7441C45.993 30.5146 44.2915 31.2751 42.6 32.0656C39.6775 33.4365 37.2053 34.5272 34.2928 35.708C32.7815 36.3184 31.1801 36.8788 29.4886 37.4491C28.8881 37.6593 28.3576 37.8194 27.9072 37.9395C26.516 38.3097 25.0548 38.5298 23.6235 38.4898C22.1122 38.4398 20.5909 37.8894 20.0504 36.3484C19.7802 35.5879 19.6901 34.7974 19.7602 33.9869C19.7702 33.8968 19.7702 33.8168 19.7602 33.7367C19.7201 33.3865 19.6701 33.0363 19.6301 32.696C19.6301 32.686 19.6401 32.676 19.6501 32.676L20.0604 32.7561C20.0704 32.7561 20.0804 32.7561 20.0904 32.7461C20.4107 31.7955 20.8911 30.9549 21.6118 30.2544C22.2523 29.634 23.003 29.2838 23.8737 29.1437C24.6844 29.0236 25.4851 29.0537 26.2758 29.2338C27.4869 29.514 28.6079 30.1944 29.6287 30.8849C30.7797 31.6554 31.9708 32.3758 33.1918 33.0263C33.9825 33.4465 34.7732 33.8668 35.5739 34.2771C35.5839 34.2871 35.5839 34.2871 35.5739 34.2971L34.9334 34.5573C34.9234 34.5673 34.9033 34.5673 34.8833 34.5573C33.4521 33.8268 32.0408 33.0763 30.6696 32.2357C29.3385 31.4252 28.0574 30.3645 26.5461 29.8942C25.6052 29.604 24.5844 29.554 23.6235 29.7641C22.1222 30.0943 21.1113 31.4852 20.6409 32.8661C20.6409 32.8762 20.6409 32.8862 20.6509 32.8862L20.9912 32.9562C21.0012 32.9562 21.0012 32.9662 21.0012 32.9762C20.781 33.3565 20.5609 33.7367 20.3507 34.117C20.3307 34.157 20.3106 34.207 20.3106 34.2571C20.2806 34.6373 20.3207 35.0176 20.3907 35.4178C20.5008 36.0682 20.721 36.6886 21.2114 37.1389C22.1723 38.0295 23.7737 38.0195 24.9847 37.9194C26.2858 37.8094 27.5369 37.5492 28.748 37.1489C31.1901 36.3384 33.7323 35.3978 36.1744 34.3671C39.9577 32.7661 43.6509 30.9749 47.3942 29.3038C47.7045 29.1637 48.0247 28.9936 48.275 28.7535C48.285 28.7435 48.285 28.7335 48.275 28.7234C47.9747 28.4333 47.5443 28.2031 47.204 28.023C45.5626 27.1624 43.9212 26.3019 42.2898 25.4313C41.0086 24.7408 39.2271 23.8603 37.6657 22.9997C36.7049 22.4694 35.7941 22.0191 34.9434 21.6388C34.503 21.4387 33.9825 21.2686 33.402 21.1085C32.7715 20.9384 32.0208 20.7583 31.1601 20.5581C27.6871 19.7776 23.9538 19.9077 20.711 21.4187C20.0804 21.7089 19.55 22.0791 19.0095 22.5094C18.0086 23.2999 17.1279 24.1405 16.3772 25.1711C14.8659 27.2425 13.815 29.8242 13.6849 32.3958C13.6849 32.4058 13.6949 32.4159 13.7049 32.4159L14.0452 32.4058C14.0552 32.4058 14.0552 32.4058 14.0552 32.4159C13.9251 32.8161 13.805 33.2064 13.6749 33.6066C13.6548 33.6567 13.6549 33.7167 13.6549 33.7667C13.6949 34.3471 13.7649 34.9175 13.875 35.4879C14.0452 36.4585 14.4255 37.3791 14.9059 38.2397C15.4965 39.3003 16.3372 40.1309 17.4181 40.7513C17.8085 40.9714 18.1688 41.1616 18.5191 41.3117C19.2397 41.6219 20.0204 41.782 20.8411 41.872C22.0622 42.0121 23.2332 42.0321 24.3642 41.9321C26.2658 41.7519 28.0874 41.4117 29.8489 40.9014C30.4495 40.7213 31.2301 40.4811 32.181 40.1609C35.0535 39.2103 37.0452 38.5298 39.5073 37.7693C40.0478 37.5992 40.6083 37.4591 41.1588 37.3191C42.7201 36.8988 44.2314 36.5886 45.8128 36.6486C46.5334 36.6786 47.8346 36.8287 48.1549 37.6293C48.5252 38.5699 46.9338 38.5699 46.4334 38.5599C45.0321 38.5198 43.691 38.2997 42.4199 37.8894C42.4099 37.8894 42.4099 37.8794 42.4199 37.8794C42.7902 37.7994 43.1605 37.7193 43.5308 37.6593C43.5809 37.6493 43.6309 37.6493 43.681 37.6593C44.6218 37.8694 45.5626 37.9895 46.5234 37.9995C46.8637 38.0095 47.2841 37.9895 47.6144 37.8594C47.5743 37.8094 47.5844 37.7994 47.5743 37.7894Z" fill="white"/>
<path d="M41.2989 36.9189C40.9887 37.0089 40.6784 37.089 40.3681 37.169C40.3581 37.169 40.3481 37.169 40.3281 37.169L39.2671 36.7387C39.2471 36.7287 39.2471 36.7187 39.2671 36.7187L40.0078 36.4586C40.0178 36.4586 40.0278 36.4586 40.0378 36.4586L41.2989 36.9189Z" fill="white"/>
<path d="M37.8059 35.4279L37.0953 35.6781H37.0853L36.2245 35.2378C36.2245 35.2378 36.2145 35.2278 36.2245 35.2278L36.8751 34.9576H36.8851L37.8059 35.4279C37.8059 35.4179 37.8059 35.4079 37.8059 35.4279Z" fill="white"/>
<defs>
<linearGradient id="paint0_linear_4_27" x1="7.9987" y1="31.0007" x2="54.0002" y2="31.0007" gradientUnits="userSpaceOnUse">
<stop stop-color="#5140B6"/>
<stop offset="1" stop-color="#352A71"/>
</linearGradient>
</defs>
</svg>
